<?xml version="1.0" encoding="UTF-8"?> <svg xmlns="http://www.w3.org/2000/svg" width="173" height="69" viewBox="0 0 173 69" fill="none"><path d="M116.531 7.62516C117.593 7.62516 118.491 7.25844 119.225 6.52501C119.958 5.79158 120.325 4.89376 120.325 3.83155C120.325 2.74405 119.958 1.83358 119.225 1.10015C118.491 0.366715 117.593 0 116.531 0C115.469 0 114.571 0.366715 113.838 1.10015C113.104 1.83358 112.738 2.74405 112.738 3.83155C112.738 4.89376 113.104 5.79158 113.838 6.52501C114.571 7.25844 115.469 7.62516 116.531 7.62516Z" fill="#4522A9"></path><path d="M113.307 8.91499V30.0833H119.794V8.91499H113.307Z" fill="#4522A9"></path><path d="M88.5222 30.0833H95.0092V21.6236L101.686 30.0833H110.297L101.231 19.7268L110.297 8.91499H101.572L95.0092 17.7541V2.01062H88.5222V30.0833Z" fill="#4522A9"></path><path fill-rule="evenodd" clip-rule="evenodd" d="M131.982 11.6843C133.424 9.68635 135.485 8.68737 138.166 8.68737C140.872 8.68737 143.161 9.71165 145.032 11.7602C146.904 13.7835 147.839 16.3758 147.839 19.5371C147.839 22.6984 146.904 25.2907 145.032 27.314C143.161 29.3373 140.897 30.3489 138.242 30.3489C135.586 30.3489 133.5 29.2361 131.982 27.0105V30.0833H125.495V2.01062H131.982V11.6843ZM139.835 23.4066C140.771 22.4961 141.239 21.2063 141.239 19.5371C141.239 17.8679 140.771 16.5781 139.835 15.6676C138.899 14.7571 137.824 14.3019 136.61 14.3019C135.396 14.3019 134.322 14.7571 133.386 15.6676C132.45 16.5528 131.982 17.83 131.982 19.4992C131.982 21.1684 132.45 22.4582 133.386 23.3686C134.322 24.2791 135.396 24.7343 136.61 24.7343C137.824 24.7343 138.899 24.2918 139.835 23.4066Z" fill="#4522A9"></path><path fill-rule="evenodd" clip-rule="evenodd" d="M150.466 19.4612C150.466 22.7237 151.528 25.354 153.653 27.3519C155.803 29.3499 158.445 30.3489 161.581 30.3489C164.718 30.3489 167.335 29.3499 169.434 27.3519C171.533 25.354 172.583 22.7237 172.583 19.4612C172.583 16.1987 171.521 13.5938 169.396 11.6464C167.297 9.67371 164.68 8.68737 161.544 8.68737C158.407 8.68737 155.777 9.67371 153.653 11.6464C151.528 13.5938 150.466 16.1987 150.466 19.4612ZM165.982 19.4992C165.982 21.2189 165.552 22.534 164.692 23.4445C163.832 24.355 162.795 24.8102 161.581 24.8102C160.368 24.8102 159.305 24.355 158.395 23.4445C157.51 22.534 157.067 21.2189 157.067 19.4992C157.067 17.7794 157.497 16.4769 158.357 15.5917C159.242 14.6813 160.292 14.226 161.506 14.226C162.72 14.226 163.769 14.6813 164.654 15.5917C165.539 16.4769 165.982 17.7794 165.982 19.4992Z" fill="#4522A9"></path><path d="M154.414 38.4473C154.698 38.2117 155.14 38.0938 155.739 38.0938L155.931 36.9744C154.9 36.9744 154.114 37.1855 153.574 37.6077C153.034 38.0202 152.68 38.6781 152.513 39.5815L152.41 40.156H151.379L151.188 41.2607H152.219L150.996 48.228H152.337L153.574 41.2607H155.268L155.459 40.156H153.766L153.869 39.5815C153.957 39.0513 154.139 38.6732 154.414 38.4473Z" fill="#4522A9"></path><path d="M107.073 37.3279V41.3933C107.613 40.4506 108.477 39.9792 109.665 39.9792C110.579 39.9792 111.33 40.2837 111.919 40.8925C112.518 41.5013 112.818 42.3508 112.818 43.4408V48.228H111.153V43.6912C111.153 42.9645 110.971 42.4097 110.608 42.0267C110.245 41.6339 109.749 41.4375 109.12 41.4375C108.492 41.4375 107.991 41.6339 107.618 42.0267C107.255 42.4097 107.073 42.9645 107.073 43.6912V48.228H105.394V37.3279H107.073Z" fill="#4522A9"></path><path d="M89.631 39.611C89.9452 39.3557 90.3528 39.228 90.8536 39.228C91.3544 39.228 91.7521 39.3606 92.0467 39.6257C92.3413 39.8909 92.5082 40.2198 92.5475 40.6126H94.4035C94.3347 39.719 93.991 39.0365 93.3724 38.5652C92.7635 38.0938 91.9436 37.8582 90.9125 37.8582C89.8912 37.8582 89.0565 38.1331 88.4084 38.683C87.7701 39.2231 87.451 39.94 87.451 40.8336C87.451 41.354 87.5492 41.7959 87.7456 42.1593C87.9518 42.5128 88.212 42.7828 88.5263 42.9694C88.8503 43.156 89.2038 43.3082 89.5868 43.426C89.9796 43.5439 90.3675 43.647 90.7505 43.7354C91.1334 43.8237 91.4821 43.9268 91.7963 44.0447C92.1203 44.1527 92.3806 44.3196 92.577 44.5455C92.7832 44.7714 92.8863 45.0856 92.8863 45.4882C92.8863 45.8908 92.7194 46.2394 92.3855 46.534C92.0614 46.8286 91.6146 46.9759 91.0451 46.9759C90.4755 46.9759 90.0434 46.8434 89.7488 46.5782C89.4542 46.3131 89.2873 45.9547 89.248 45.5029H87.451C87.451 46.3867 87.7849 47.079 88.4526 47.5798C89.1204 48.0807 89.9894 48.3311 91.0598 48.3311C92.1302 48.3311 92.9845 48.0316 93.6228 47.4325C94.2611 46.8335 94.5802 46.156 94.5802 45.3998C94.5802 44.6437 94.3937 44.0594 94.0205 43.647C93.6473 43.2345 93.1956 42.9547 92.6654 42.8074C92.1351 42.6503 91.6048 42.5128 91.0745 42.3949C90.5443 42.2771 90.0925 42.0905 89.7194 41.8352C89.3462 41.5799 89.1597 41.2116 89.1597 40.7305C89.1597 40.2395 89.3168 39.8663 89.631 39.611Z" fill="#4522A9"></path><path d="M97.1066 47.2116C97.8431 47.9775 98.8006 48.3605 99.9789 48.3605C100.941 48.3605 101.747 48.1199 102.395 47.6388C103.043 47.1478 103.485 46.4898 103.72 45.665H101.909C101.594 46.5193 100.951 46.9465 99.9789 46.9465C99.2916 46.9465 98.7416 46.701 98.3292 46.21C97.9266 45.719 97.7253 45.0365 97.7253 44.1625C97.7253 43.2886 97.9266 42.611 98.3292 42.1298C98.7416 41.6388 99.2916 41.3933 99.9789 41.3933C100.961 41.3933 101.604 41.8205 101.909 42.6748H103.72C103.494 41.8107 103.057 41.1478 102.409 40.6863C101.771 40.2149 100.961 39.9792 99.9789 39.9792C98.8104 39.9792 97.8529 40.3622 97.1066 41.1282C96.3701 41.8941 96.0019 42.9105 96.0019 44.1773C96.0019 45.4342 96.3701 46.4456 97.1066 47.2116Z" fill="#4522A9"></path><path fill-rule="evenodd" clip-rule="evenodd" d="M115.563 47.2116C116.329 47.9775 117.302 48.3605 118.48 48.3605C119.668 48.3605 120.665 47.9726 121.47 47.1969C122.285 46.4211 122.693 45.4096 122.693 44.1625C122.693 42.9154 122.295 41.9089 121.5 41.1429C120.714 40.3671 119.732 39.9792 118.554 39.9792C117.375 39.9792 116.388 40.3671 115.593 41.1429C114.807 41.9089 114.415 42.9203 114.415 44.1773C114.415 45.4244 114.798 46.4358 115.563 47.2116ZM120.969 44.1625C120.969 45.0365 120.724 45.719 120.233 46.21C119.742 46.701 119.158 46.9465 118.48 46.9465C117.812 46.9465 117.252 46.7059 116.801 46.2247C116.349 45.7337 116.123 45.0512 116.123 44.1773C116.123 43.2935 116.354 42.611 116.815 42.1298C117.277 41.6388 117.847 41.3933 118.524 41.3933C119.202 41.3933 119.776 41.6388 120.248 42.1298C120.729 42.611 120.969 43.2886 120.969 44.1625Z" fill="#4522A9"></path><path fill-rule="evenodd" clip-rule="evenodd" d="M127.873 48.3605C126.695 48.3605 125.723 47.9775 124.957 47.2116C124.191 46.4358 123.808 45.4244 123.808 44.1773C123.808 42.9203 124.2 41.9089 124.986 41.1429C125.781 40.3671 126.768 39.9792 127.947 39.9792C129.125 39.9792 130.107 40.3671 130.893 41.1429C131.688 41.9089 132.086 42.9154 132.086 44.1625C132.086 45.4096 131.678 46.4211 130.863 47.1969C130.058 47.9726 129.061 48.3605 127.873 48.3605ZM129.626 46.21C130.117 45.719 130.362 45.0365 130.362 44.1625C130.362 43.2886 130.122 42.611 129.641 42.1298C129.169 41.6388 128.595 41.3933 127.917 41.3933C127.24 41.3933 126.67 41.6388 126.209 42.1298C125.747 42.611 125.516 43.2935 125.516 44.1773C125.516 45.0512 125.742 45.7337 126.194 46.2247C126.646 46.7059 127.205 46.9465 127.873 46.9465C128.551 46.9465 129.135 46.701 129.626 46.21Z" fill="#4522A9"></path><path d="M133.746 37.3279V48.228H135.425V37.3279H133.746Z" fill="#4522A9"></path><path fill-rule="evenodd" clip-rule="evenodd" d="M144.874 48.3605C144.196 48.3605 143.597 48.223 143.077 47.9481C142.566 47.6633 142.168 47.2705 141.884 46.7697C141.599 46.2591 141.457 45.6699 141.457 45.0021C141.457 44.0889 141.668 43.2542 142.09 42.498C142.512 41.7321 143.092 41.1282 143.828 40.6863C144.574 40.2444 145.404 40.0234 146.317 40.0234C146.995 40.0234 147.594 40.1658 148.114 40.4506C148.645 40.7256 149.052 41.1184 149.337 41.629C149.632 42.1298 149.779 42.719 149.779 43.3966C149.779 44.3098 149.563 45.1445 149.131 45.9006C148.699 46.6568 148.11 47.2558 147.363 47.6977C146.617 48.1396 145.787 48.3605 144.874 48.3605ZM145.036 47.2263C145.674 47.2263 146.249 47.0545 146.759 46.7108C147.27 46.3573 147.668 45.8957 147.952 45.3262C148.247 44.7468 148.394 44.1282 148.394 43.4702C148.394 42.7239 148.178 42.1544 147.746 41.7616C147.314 41.3589 146.774 41.1576 146.126 41.1576C145.488 41.1576 144.918 41.3344 144.417 41.6879C143.916 42.0316 143.529 42.4931 143.254 43.0725C142.979 43.6519 142.841 44.2754 142.841 44.9432C142.841 45.6699 143.047 46.2345 143.46 46.6371C143.872 47.0299 144.398 47.2263 145.036 47.2263Z" fill="#4522A9"></path><path d="M87.1417 55.5698V54.2589H94.2856V55.5698H91.5606V64.4961H89.8814V55.5698H87.1417Z" fill="#4522A9"></path><path fill-rule="evenodd" clip-rule="evenodd" d="M96.5312 63.4797C97.2677 64.2457 98.2252 64.6287 99.4036 64.6287C100.356 64.6287 101.156 64.393 101.805 63.9216C102.453 63.4405 102.899 62.8267 103.145 62.0804H101.333C100.96 62.8365 100.317 63.2146 99.4036 63.2146C98.7751 63.2146 98.2497 63.0182 97.8275 62.6254C97.415 62.2228 97.1892 61.6827 97.1499 61.0051H103.366C103.405 60.7596 103.425 60.4945 103.425 60.2097C103.425 59.0313 103.057 58.0788 102.32 57.3521C101.584 56.6156 100.621 56.2474 99.433 56.2474C98.2546 56.2474 97.2923 56.6304 96.546 57.3963C95.7997 58.1524 95.4265 59.1639 95.4265 60.4307C95.4265 61.6974 95.7947 62.7138 96.5312 63.4797ZM101.009 58.2654C101.441 58.6582 101.662 59.1884 101.672 59.8562H97.1646C97.2235 59.1884 97.4592 58.6582 97.8717 58.2654C98.2939 57.8628 98.8144 57.6615 99.433 57.6615C100.052 57.6615 100.577 57.8628 101.009 58.2654Z" fill="#4522A9"></path><path d="M108.495 64.6287C107.316 64.6287 106.359 64.2457 105.622 63.4797C104.886 62.7138 104.518 61.7023 104.518 60.4454C104.518 59.1786 104.886 58.1623 105.622 57.3963C106.369 56.6304 107.326 56.2474 108.495 56.2474C109.477 56.2474 110.287 56.4831 110.925 56.9544C111.573 57.416 112.01 58.0788 112.236 58.9429H110.424C110.12 58.0886 109.477 57.6615 108.495 57.6615C107.807 57.6615 107.257 57.9069 106.845 58.3979C106.442 58.8791 106.241 59.5567 106.241 60.4307C106.241 61.3046 106.442 61.9871 106.845 62.4781C107.257 62.9691 107.807 63.2146 108.495 63.2146C109.467 63.2146 110.11 62.7874 110.424 61.9331H112.236C112 62.758 111.558 63.4159 110.91 63.9069C110.262 64.3881 109.457 64.6287 108.495 64.6287Z" fill="#4522A9"></path><path d="M115.589 57.6615V53.596H113.909V64.4961H115.589V59.9593C115.589 59.2326 115.77 58.6778 116.134 58.2948C116.507 57.902 117.008 57.7056 117.636 57.7056C118.265 57.7056 118.76 57.902 119.124 58.2948C119.487 58.6778 119.669 59.2326 119.669 59.9593V64.4961H121.333V59.7089C121.333 58.6189 121.034 57.7695 120.435 57.1606C119.846 56.5518 119.094 56.2474 118.181 56.2474C116.993 56.2474 116.129 56.7187 115.589 57.6615Z" fill="#4522A9"></path><path d="M125.154 56.38V57.6615C125.695 56.7187 126.559 56.2474 127.747 56.2474C128.66 56.2474 129.411 56.5518 130.001 57.1606C130.6 57.7695 130.899 58.6189 130.899 59.7089V64.4961H129.235V59.9593C129.235 59.2326 129.053 58.6778 128.69 58.2948C128.326 57.902 127.83 57.7056 127.202 57.7056C126.573 57.7056 126.073 57.902 125.699 58.2948C125.336 58.6778 125.154 59.2326 125.154 59.9593V64.4961H123.475V56.38H125.154Z" fill="#4522A9"></path><path fill-rule="evenodd" clip-rule="evenodd" d="M133.645 63.4797C134.411 64.2457 135.383 64.6287 136.561 64.6287C137.75 64.6287 138.746 64.2408 139.552 63.465C140.367 62.6892 140.774 61.6778 140.774 60.4307C140.774 59.1835 140.376 58.177 139.581 57.411C138.795 56.6353 137.813 56.2474 136.635 56.2474C135.457 56.2474 134.47 56.6353 133.674 57.411C132.889 58.177 132.496 59.1884 132.496 60.4454C132.496 61.6925 132.879 62.704 133.645 63.4797ZM139.051 60.4307C139.051 61.3046 138.805 61.9871 138.314 62.4781C137.823 62.9691 137.239 63.2146 136.561 63.2146C135.894 63.2146 135.334 62.974 134.882 62.4928C134.43 62.0018 134.205 61.3194 134.205 60.4454C134.205 59.5616 134.435 58.8791 134.897 58.3979C135.358 57.9069 135.928 57.6615 136.606 57.6615C137.283 57.6615 137.858 57.9069 138.329 58.3979C138.81 58.8791 139.051 59.5567 139.051 60.4307Z" fill="#4522A9"></path><path d="M142.434 64.4961V53.596H144.113V64.4961H142.434Z" fill="#4522A9"></path><path fill-rule="evenodd" clip-rule="evenodd" d="M146.922 63.4797C147.688 64.2457 148.66 64.6287 149.838 64.6287C151.027 64.6287 152.023 64.2408 152.829 63.465C153.644 62.6892 154.051 61.6778 154.051 60.4307C154.051 59.1835 153.653 58.177 152.858 57.411C152.072 56.6353 151.09 56.2474 149.912 56.2474C148.734 56.2474 147.747 56.6353 146.951 57.411C146.166 58.177 145.773 59.1884 145.773 60.4454C145.773 61.6925 146.156 62.704 146.922 63.4797ZM152.328 60.4307C152.328 61.3046 152.082 61.9871 151.591 62.4781C151.1 62.9691 150.516 63.2146 149.838 63.2146C149.171 63.2146 148.611 62.974 148.159 62.4928C147.707 62.0018 147.482 61.3194 147.482 60.4454C147.482 59.5616 147.712 58.8791 148.174 58.3979C148.635 57.9069 149.205 57.6615 149.883 57.6615C150.56 57.6615 151.135 57.9069 151.606 58.3979C152.087 58.8791 152.328 59.5567 152.328 60.4307Z" fill="#4522A9"></path><path fill-rule="evenodd" clip-rule="evenodd" d="M158.981 64.6287C157.901 64.6287 156.993 64.2359 156.256 63.4503C155.52 62.6549 155.151 61.6434 155.151 60.4159C155.151 59.1786 155.515 58.177 156.241 57.411C156.978 56.6353 157.891 56.2474 158.981 56.2474C159.619 56.2474 160.179 56.3947 160.66 56.6893C161.151 56.9741 161.529 57.3521 161.795 57.8235V56.38H163.488V64.6287C163.488 65.7678 163.135 66.6957 162.428 67.4126C161.731 68.1393 160.798 68.5026 159.629 68.5026C158.461 68.5026 157.513 68.2424 156.786 67.7219C156.06 67.2113 155.647 66.5141 155.549 65.6303H157.214C157.341 66.0525 157.611 66.3913 158.024 66.6467C158.446 66.9118 158.971 67.0443 159.6 67.0443C160.228 67.0443 160.749 66.8381 161.161 66.4257C161.583 66.0133 161.795 65.4143 161.795 64.6287V62.9789C161.52 63.4797 161.142 63.8824 160.66 64.1868C160.179 64.4814 159.619 64.6287 158.981 64.6287ZM161.058 62.4339C161.549 61.9331 161.795 61.2653 161.795 60.4307C161.795 59.596 161.549 58.9331 161.058 58.4421C160.577 57.9511 160.002 57.7056 159.335 57.7056C158.667 57.7056 158.088 57.9462 157.597 58.4274C157.115 58.9086 156.875 59.5665 156.875 60.4012C156.875 61.2359 157.115 61.9086 157.597 62.4192C158.088 62.92 158.667 63.1704 159.335 63.1704C160.002 63.1704 160.577 62.9249 161.058 62.4339Z" fill="#4522A9"></path><path d="M164.737 56.38L167.933 64.3635L166.283 68.3111H168.021L173 56.38H171.262L168.89 62.5665L166.607 56.38H164.737Z" fill="#4522A9"></path><path d="M17.1747 45.6689H50.0928L33.6337 22.8345L17.1747 45.6689Z" fill="#FF8A00"></path><path d="M21.1557 57.4719H34.252L27.7038 46.7568L21.1557 57.4719Z" fill="#01AB9D"></path><path d="M36.2667 57.4719H52.3851L44.3259 46.7568L36.2667 57.4719Z" fill="#00CCBB"></path><path d="M52.3849 57.472H63.4664L57.9257 49.6792L52.3849 57.472Z" fill="#00CCBB"></path><path d="M51.3775 45.7827H67.496L59.4367 34.0935L51.3775 45.7827Z" fill="#FFB800"></path><path d="M-2.47955e-05 45.6996H15.223L7.61147 33.8105L-2.47955e-05 45.6996Z" fill="#4688F1"></path><path d="M7.05195 57.472H20.1482L13.6001 48.7051L7.05195 57.472Z" fill="#4688F1"></path><path d="M10.1476 33.1557H24.1223L17.9569 21.2361L10.1476 33.1557Z" fill="#4688F1"></path><path d="M58.4296 33.1194H43.0445L50.874 21.4302L58.4296 33.1194Z" fill="#FFC804"></path><path d="M35.2591 20.4561H49.3628L42.311 10.7151L35.2591 20.4561Z" fill="#FF8A00"></path><path d="M51.3776 20.4561H65.4812L58.4294 10.7151L51.3776 20.4561Z" fill="#FF8A00"></path><path d="M20.1483 20.4561H32.2371L26.1927 10.7151L20.1483 20.4561Z" fill="#9570FF"></path><path d="M14.1036 9.74107H24.1777L19.7163 2.92236L14.1036 9.74107Z" fill="#9570FF"></path><path d="M15.8084 66.2388H26.9329L21.6125 59.4451L15.8084 66.2388Z" fill="#01AB9D"></path><path d="M43.3183 9.74107H54.3998L48.704 2.92236L43.3183 9.74107Z" fill="#FF8A00"></path><path d="M41.5704 66.2388H52.1094L47.069 58.8789L41.5704 66.2388Z" fill="#00CCBB"></path><path d="M4.02961 20.4561H17.1259L10.5777 10.7151L4.02961 20.4561Z" fill="#9570FF"></path><path d="M27.1999 9.74101H41.3035L34.2517 0L27.1999 9.74101Z" fill="#9570FF"></path><path d="M26.9332 68.5034H41.5707L34.2519 59.4451L26.9332 68.5034Z" fill="#01AB9D"></path><path d="M0.000246048 33.1195H10.0743L5.03726 25.3267L0.000246048 33.1195Z" fill="#4688F1"></path><path d="M68.5034 33.1195H58.4294L63.4664 25.3267L68.5034 33.1195Z" fill="#FFC804"></path><path fill-rule="evenodd" clip-rule="evenodd" d="M77.2745 68.5034V0H78.3706V68.5034H77.2745Z" fill="#4522A9"></path></svg> 